<svg width="176" height="160" fill="none" xmlns="http://www.w3.org/2000/svg">
  <g clip-path="url(#a)">
    <rect width="176" height="160" rx="12" fill="#EDF2FE"/>
    <g filter="url(#b)">
      <ellipse cx="123.9" cy="38.5" rx="71.9" ry="71.5" fill="#E2DDFF"/>
    </g>
    <g clip-path="url(#c)">
      <path d="M119 65h5v2l2 2v2h17l-1-2h1l4-2h1l1-1 1-1v-1l-1-1v-1h2l1-1 1-1 1-1 1-3v-1l-1-5-4-6c-1-3-2-3-4-5l-3-1h-1v-2l-1-1-1-1 1-1h3v-3l1-1 2-3v-2l-1-1-2-4-5-2a11 11 0 0 0-4 0l-1 1c-2 0-2 1-2 2v1h-1v5l-1 1v5l1 3-2 1-1 2-4 3c-1 4 0 6 1 9l-12 2 1 12v1l2-1 3 1Zm28-12-1 1-1 1v2l-1-1-1-1 1-6 3 4Z" fill="#fff"/>
      <path d="M114 47v2h-4v-2h4Zm2 0h-2v-8h2v8Zm-6 0h-2v-8h2v8Zm4-8h-4v-2h4v2Z" fill="url(#d)" fill-opacity=".8"/>
      <path d="M123 30v1h-4v-1h4Zm1 0h-1v-6h1v6Zm-1-6h-4v6h-1v-6h1v-1h4v1Z" fill="url(#e)" fill-opacity=".6"/>
      <path d="M159 34v2h-5v-2h5Zm-5 0h-2v-7h2v7Zm7 0h-2v-7h2v7Zm-2-7h-5v-3h5v3Z" fill="url(#f)" fill-opacity=".8"/>
      <path d="M131 25h0v1l-1 1" stroke="#000" stroke-width=".4" stroke-linecap="round" stroke-linejoin="round"/>
      <path d="M136 27s2-1 2 1M132 26h1" stroke="#000" stroke-width=".3" stroke-linecap="round" stroke-linejoin="round"/>
      <path d="M137 28v-1h-1v1h1ZM133 26h-2l1 1 1-1Z" fill="#000"/>
      <path d="M130 28v6l2 2c3 1 5 0 7-3" stroke="#000" stroke-width=".4" stroke-linecap="round" stroke-linejoin="round"/>
      <path d="M143 30h2l-1 3h-3" stroke="#000" stroke-width=".7" stroke-linecap="round" stroke-linejoin="round"/>
      <path d="M142 26c-2 0-3-2-5-4v2c-2 0-4-1-4-3l-2 3" stroke="#000" stroke-width=".4" stroke-linecap="round" stroke-linejoin="round"/>
      <path d="m132 20 1-2 5-1 5 1c2 1 3 2 3 4l1 4h0l-3 4M131 24l1-4" stroke="#000" stroke-width=".7" stroke-linecap="round" stroke-linejoin="round"/>
      <path d="m134 36-1 3v1h2M139 37l2-4M139 57c-2-2-5-8-4-12l1-5 2-2 2-1v-1" stroke="#000" stroke-width=".4" stroke-linecap="round" stroke-linejoin="round"/>
      <path d="m137 41 1 3 4-5M130 36h-1l-1 1v1s0 0 0 0l-1 2" stroke="#000" stroke-width=".4" stroke-linecap="round" stroke-linejoin="round"/>
      <path d="m128 38-4 4v4" stroke="#000" stroke-width=".7" stroke-linecap="round" stroke-linejoin="round"/>
      <path d="m131 39 1-1M128 67c-1-14-2-22 1-26l1-1v-2" stroke="#000" stroke-width=".4" stroke-linecap="round" stroke-linejoin="round"/>
      <path d="M124 65v3h2" stroke="#000" stroke-width=".7" stroke-linecap="round" stroke-linejoin="round"/>
      <path d="M126 43c-3 5 0 8-1 19M144 50l-1 4 1 2 1 1M141 52l2 4M142 44v2c0 2 2 3 2 3l2 2 1 1M145 57l-2 1M151 51l-3 1-1 1-1 1-1 1v2" stroke="#000" stroke-width=".4" stroke-linecap="round" stroke-linejoin="round"/>
      <path d="m140 34 2 1 1 3h1l1 1 3 2 6 9v7c0 3-2 5-5 5l1 2v1l-1 1-6 3 1 2" stroke="#000" stroke-width=".7" stroke-linecap="round" stroke-linejoin="round"/>
      <path d="m144 59 1 2v2l1 1 2-2M145 63l-4 2-2-1-1-2c-1-1 0-2 1-3M143 59l-1-1-1-1h-1l-2 1v1h0" stroke="#000" stroke-width=".4" stroke-linecap="round" stroke-linejoin="round"/>
      <path d="m142 66 1 3M126 69l1 2" stroke="#000" stroke-width=".7" stroke-linecap="round" stroke-linejoin="round"/>
      <path d="M131 69h1l1 1v1M128 64h10" stroke="#000" stroke-width=".4" stroke-linecap="round" stroke-linejoin="round"/>
      <path d="M118 71h34M125 51l-10 1h-2s0 0 0 0l1 12s0 0 0 0l1 1s0 0 0 0l4-1" stroke="#000" stroke-width=".7" stroke-linecap="round" stroke-linejoin="round"/>
      <path d="M115 53v11M132 31l4 1M132 31v1M132 32h4M140 28v1l-2 1-2-1c-1 0-2-1-1-2v-1s0 0 0 0h0-1l-1 2-1 1h2" stroke="#000" stroke-width=".4" stroke-linecap="round" stroke-linejoin="round"/>
      <path d="m131 28-1-1-1-1 1-2h1l9 3h1l2 2M124 59l-1 1-1-2 1-2M118 65h2l1-3-1-1-1 1v2" stroke="#000" stroke-width=".4" stroke-linecap="round" stroke-linejoin="round"/>
      <path d="M120 65h2v-4h-1M123 62h1v2l-1 1" stroke="#000" stroke-width=".4" stroke-linecap="round" stroke-linejoin="round"/>
      <path d="m132 50 2-8h-2v1h-1l-1 2h1l-1 5h-1v1h4v-1h-1Z" fill="url(#g)" fill-opacity=".8"/>
    </g>
  </g>
  <defs>
    <linearGradient id="d" x1="113.8" y1="38.1" x2="106.8" y2="57.4" gradientUnits="userSpaceOnUse">
      <stop stop-color="#B2A3FF"/>
      <stop offset="1" stop-color="#B2A3FF" stop-opacity="0"/>
    </linearGradient>
    <linearGradient id="e" x1="122.6" y1="23.2" x2="115.4" y2="41.2" gradientUnits="userSpaceOnUse">
      <stop stop-color="#B2A3FF"/>
      <stop offset="1" stop-color="#B2A3FF" stop-opacity="0"/>
    </linearGradient>
    <linearGradient id="f" x1="158.2" y1="25.1" x2="150.8" y2="47.7" gradientUnits="userSpaceOnUse">
      <stop stop-color="#B2A3FF"/>
      <stop offset="1" stop-color="#B2A3FF" stop-opacity="0"/>
    </linearGradient>
    <linearGradient id="g" x1="128.5" y1="38.8" x2="135.7" y2="59.1" gradientUnits="userSpaceOnUse">
      <stop offset=".2" stop-color="#B2A3FF"/>
      <stop offset=".8" stop-color="#B2A3FF" stop-opacity="0"/>
    </linearGradient>
    <clipPath id="a">
      <rect width="176" height="160" rx="12" fill="#fff"/>
    </clipPath>
    <clipPath id="c">
      <path fill="#fff" transform="translate(104 16)" d="M0 0h56v56H0z"/>
    </clipPath>
    <filter id="b" x="-48" y="-133" width="343.8" height="343" filterUnits="userSpaceOnUse" color-interpolation-filters="sRGB">
      <feFlood flood-opacity="0" result="BackgroundImageFix"/>
      <feBlend in="SourceGraphic" in2="BackgroundImageFix" result="shape"/>
      <feGaussianBlur stdDeviation="50" result="effect1_foregroundBlur_9155_414"/>
    </filter>
  </defs>
</svg>
