<svg width="176" height="196" fill="none" xmlns="http://www.w3.org/2000/svg">
  <g clip-path="url(#a)">
    <rect width="176" height="196" rx="12" fill="#EDF2FE"/>
    <g filter="url(#b)">
      <ellipse cx="130" cy="41.4" rx="96" ry="91.4" fill="#E2DDFF"/>
    </g>
    <g clip-path="url(#c)">
      <path d="M88 100h2v-1l2 1 2-1h2l1 1-1 1h1v2c0 1 2 3 4 3v4h9v1l2-1h18l-2-4h2l6-2 2-1 2-1 2-2v-2l-2-2-1-1 2-1h2l2-1 1-1 2-3 1-5 1-1v-1l-1-8-7-11c-3-4-3-5-7-7l-5-2-2-1v-3l-3-2v-2l2-1 4-1c2-2 2-3 1-4-2-1-2-1 0 0l1-2 3-5v-3l-1-3c0-3-2-5-4-7s-5-3-8-3a18 18 0 0 0-7 0l-2 1c-3 2-4 3-3 5l-1 1h-1v9l-1 2-1 3v5l1 5v1l-3 1-1 3c-6 2-4 3-6 6-2 6-1 9 1 15l-21 3v1l1 20 1 1h4l4 1Zm48-21-1 2-2 1-1 2v1h-1l-1-1v-1l-1-1c0-4 1-6 3-9l4 5v1Z" fill="#fff"/>
      <path d="M80 69v3h-8v-3h8Zm4 0h-4V56h4v13Zm-12 0h-3V56h3v13Zm8-13h-8v-4h8v4Z" fill="url(#d)" fill-opacity=".8"/>
      <path d="M95 39v2h-6v-2h6Zm2 0h-2V29h2v10Zm-2-10h-6v10h-2V29h2v-2h6v2Z" fill="url(#e)" fill-opacity=".6"/>
      <path d="M157 47v4h-8v-4h8Zm-8 0h-4V34h4v13Zm11 0h-3V34h3v13Zm-3-13h-8v-4h8v4Z" fill="url(#f)" fill-opacity=".8"/>
      <path d="M109 31v2l-1 1" stroke="#000" stroke-width=".7" stroke-linecap="round" stroke-linejoin="round"/>
      <path d="M117 35c1-1 3-2 4 1M110 33c1-2 2-1 3 0" stroke="#000" stroke-width=".5" stroke-linecap="round" stroke-linejoin="round"/>
      <path d="m119 36-1-2-1 1 1 2 1-1ZM111 34v-2l-2 1 1 1h1Z" fill="#000"/>
      <path d="M107 36v8l1 3 3 3c4 1 8 0 12-5" stroke="#000" stroke-width=".7" stroke-linecap="round" stroke-linejoin="round"/>
      <path d="m129 39 3 1c1 1 0 3-1 4l-4 1" stroke="#000" stroke-width="1.3" stroke-linecap="round" stroke-linejoin="round"/>
      <path d="M128 33c-4-1-6-4-9-8v5c-4-1-6-3-7-6 0 0-2 1-3 5" stroke="#000" stroke-width=".7" stroke-linecap="round" stroke-linejoin="round"/>
      <path d="m111 22 1-3c3-2 6-2 9-2l9 2 5 7 1 6v1l-4 6M109 29c-1-3 0-5 2-7" stroke="#000" stroke-width="1.3" stroke-linecap="round" stroke-linejoin="round"/>
      <path d="m114 50-2 5v1l3 1M123 52l3-8M122 85c-3-3-8-13-6-20l2-7 3-4 2-2c1 0 3-2 2-3" stroke="#000" stroke-width=".7" stroke-linecap="round" stroke-linejoin="round"/>
      <path d="m119 58 2 5 7-7M107 49l-1 1-2 2v1s0 0 0 0l-1 4" stroke="#000" stroke-width=".7" stroke-linecap="round" stroke-linejoin="round"/>
      <path d="M104 53c-4 1-6 5-7 7v8" stroke="#000" stroke-width="1.3" stroke-linecap="round" stroke-linejoin="round"/>
      <path d="m108 55 3-2M103 102c0-23-3-37 3-44l1-2v-3" stroke="#000" stroke-width=".7" stroke-linecap="round" stroke-linejoin="round"/>
      <path d="M97 100v5h4" stroke="#000" stroke-width="1.3" stroke-linecap="round" stroke-linejoin="round"/>
      <path d="M101 62c-5 8 0 13-3 32M131 74l-2 7 1 3 2 2M126 77l4 6M127 63l1 4 3 5 3 3 2 3M133 85l-3 2M143 75c-2 0-3 0-5 2l-2 2-2 2-1 1v3" stroke="#000" stroke-width=".7" stroke-linecap="round" stroke-linejoin="round"/>
      <path d="m125 47 3 2 1 4 2 1 3 1 4 3c5 5 8 11 11 16v11c-1 6-4 10-10 10l3 3v2l-2 2c-5 3-11 4-11 4l2 4" stroke="#000" stroke-width="1.3" stroke-linecap="round" stroke-linejoin="round"/>
      <path d="m131 90 2 3v4h1l4-2M133 97l-7 3-3-2-2-4c-2-2-1-3 2-5M130 89l-3-2-2-1h-1l-3 2v1h0" stroke="#000" stroke-width=".7" stroke-linecap="round" stroke-linejoin="round"/>
      <path d="m127 102 2 4M101 106v4" stroke="#000" stroke-width="1.3" stroke-linecap="round" stroke-linejoin="round"/>
      <path d="M108 106h2l1 2 1 2M103 99c6 1 11 0 18-1" stroke="#000" stroke-width=".7" stroke-linecap="round" stroke-linejoin="round"/>
      <path d="M86 110h60M98 75l-17 2h-2 0l-1 1 1 20 1 1h2s0 0 0 0l5-2" stroke="#000" stroke-width="1.3" stroke-linecap="round" stroke-linejoin="round"/>
      <path d="m81 79 1 18M110 41c2 1 4 2 7 1M111 42l-1 2" stroke="#000" stroke-width=".7" stroke-linecap="round" stroke-linejoin="round"/>
      <path d="M110 44c2 1 6 0 7-2M125 36l-1 2-3 1-4-1-2-3v-2c1 0 0 0 0 0h0-1l-2 3-1 2 2 1" stroke="#000" stroke-width=".7" stroke-linecap="round" stroke-linejoin="round"/>
      <path d="m109 36-2-1-1-3 1-2 1-1 17 5h1l4 3M96 90h-1c-1 0-2-1-2-3s1-3 2-3M87 100h2c2-1 2-4 2-5l-1-2-2 2v2M91 99h2l1-2v-3l-2-1M95 94l2 1v3l-1 1" stroke="#000" stroke-width=".7" stroke-linecap="round" stroke-linejoin="round"/>
      <path d="m110 74 4-13h-3v1h-3l-1 3h2l-2 9h-2v2h8v-2h-3Z" fill="url(#g)" fill-opacity=".8"/>
    </g>
  </g>
  <defs>
    <linearGradient id="d" x1="79.3" y1="53.4" x2="67.3" y2="86.6" gradientUnits="userSpaceOnUse">
      <stop stop-color="#B2A3FF"/>
      <stop offset="1" stop-color="#B2A3FF" stop-opacity="0"/>
    </linearGradient>
    <linearGradient id="e" x1="94.5" y1="27.8" x2="82.1" y2="58.8" gradientUnits="userSpaceOnUse">
      <stop stop-color="#B2A3FF"/>
      <stop offset="1" stop-color="#B2A3FF" stop-opacity="0"/>
    </linearGradient>
    <linearGradient id="f" x1="155.5" y1="31.1" x2="142.9" y2="69.9" gradientUnits="userSpaceOnUse">
      <stop stop-color="#B2A3FF"/>
      <stop offset="1" stop-color="#B2A3FF" stop-opacity="0"/>
    </linearGradient>
    <linearGradient id="g" x1="104.6" y1="54.6" x2="117" y2="89.5" gradientUnits="userSpaceOnUse">
      <stop offset=".2" stop-color="#B2A3FF"/>
      <stop offset=".8" stop-color="#B2A3FF" stop-opacity="0"/>
    </linearGradient>
    <clipPath id="a">
      <rect width="176" height="196" rx="12" fill="#fff"/>
    </clipPath>
    <clipPath id="c">
      <path fill="#fff" transform="translate(64 16)" d="M0 0h96v96H0z"/>
    </clipPath>
    <filter id="b" x="-66" y="-150" width="392" height="382.8" filterUnits="userSpaceOnUse" color-interpolation-filters="sRGB">
      <feFlood flood-opacity="0" result="BackgroundImageFix"/>
      <feBlend in="SourceGraphic" in2="BackgroundImageFix" result="shape"/>
      <feGaussianBlur stdDeviation="50" result="effect1_foregroundBlur_9155_357"/>
    </filter>
  </defs>
</svg>
