<svg width="176" height="196" viewBox="0 0 176 196" fill="none" xmlns="http://www.w3.org/2000/svg">
<g clip-path="url(#clip0_352_23923)">
<rect width="176" height="196" rx="12" fill="#EDF2FE"/>
<g filter="url(#filter0_f_352_23923)">
<ellipse cx="130" cy="41.3876" rx="96" ry="91.3876" fill="#F0FFF2"/>
</g>
<path d="M138.888 28.6363C138.651 29.7289 138.755 32.7448 140.999 34.9103C143.244 37.0758 145.31 38.297 146.334 38.6381C146.774 38.7864 146.912 39.1622 146.897 39.4835C146.546 47.5028 146.012 64.7674 141.869 82.383C141.602 83.5152 141.503 83.7921 140.816 84.5584C138.018 87.683 134.517 90.0809 131.076 92.4244L127.255 94.9854C123.749 97.2844 120.155 99.4944 116.487 101.447C116.007 101.699 115.483 101.897 114.944 101.952C113.273 102.11 108.195 102.322 106.46 102.317C105.417 102.317 104.611 102.055 103.949 101.699C94.9899 96.8938 80.9192 85.3049 78.4916 80.5636C76.2223 76.1288 77.4188 47.4039 77.4188 36.7396C79.08 36.5418 82.2986 35.3108 84.2564 32.2158C86.2142 29.1208 85.9225 24.9233 86.1302 24.8047C86.8668 24.3795 89.6256 23.3214 92.3646 22.3969C94.011 21.8333 95.6574 21.3438 97.3087 20.9434C109.511 18.1599 125.183 20.5379 131.813 22.7628C132.846 23.1089 133.296 23.5934 133.702 23.9642C135.185 25.3238 137.85 27.6327 138.893 28.6215" fill="white"/>
<path d="M132.986 27.0779C133.308 28.7189 134.147 32.3305 135.625 34.4914C137.375 36.9683 139.382 38.6641 141.291 39.4997C142.072 39.8408 142.027 40.444 141.998 41.1609C141.493 52.8881 140.722 63.2805 137.232 79.9469C136.91 81.4697 136.386 82.3794 135.57 83.1853C128.151 90.4864 115.117 97.127 110.848 99.1977" stroke="black" stroke-width="0.940217" stroke-linecap="round" stroke-linejoin="round"/>
<path d="M81.4244 71.9166C80.9547 62.0582 81.1426 45.3572 81.6568 40.4477C81.6716 40.2994 81.7507 40.1659 81.8842 40.1017C82.8483 39.627 84.9643 38.2378 87.3029 35.652C89.6315 33.0811 90.0963 29.8082 90.032 28.147C90.0221 27.8998 90.1556 27.6674 90.383 27.5735C93.1863 26.4215 99.9646 24.4587 108.073 24.1324C111.484 23.994 114.97 24.2609 118.099 24.6812C122.183 25.23 125.664 26.0457 127.592 26.5797C128.363 26.7923 128.111 27.7465 128.17 28.3892C128.24 29.1506 128.368 29.9021 128.541 30.6437C129.426 34.3567 131.779 38.0202 134.746 40.3637M135.858 59.4873C135.132 66.7204 133.92 75.1302 133.07 77.9236C132.803 78.8037 132.501 79.6342 132.002 80.1237C130.484 81.597 126.91 84.5338 121.822 87.6288C119.681 89.0279 108.009 96.2265 104.894 96.2265C103.465 96.2265 99.7816 93.8385 96.2219 91.2528C94.2196 89.7992 92.2568 88.2863 90.7538 87.1047" stroke="black" stroke-width="0.940217" stroke-linecap="round" stroke-linejoin="round"/>
<path d="M138.888 28.6314C137.845 27.6426 135.18 25.3337 133.697 23.9741C133.292 23.6033 132.842 23.1188 131.808 22.7727C127.123 21.2003 117.92 19.5513 108.618 19.7021C101.403 19.8191 92.5345 21.1084 86.1304 24.8047C85.9228 24.9234 86.2145 29.1209 84.2566 32.2158C82.2988 35.3108 79.0802 36.5419 77.419 36.7397C77.419 47.404 76.2226 76.1289 78.4919 80.5637C80.9194 85.305 94.9901 96.8939 103.949 101.699C104.611 102.055 105.417 102.317 106.46 102.317C108.196 102.322 113.273 102.11 114.944 101.952C115.483 101.897 116.007 101.699 116.487 101.447C118.866 100.181 121.214 98.8061 123.527 97.3691C127.355 94.9905 131.144 92.4947 134.787 89.8366C136.951 88.2572 139.027 86.5564 140.816 84.5585C141.504 83.7921 141.603 83.5153 141.87 82.3831C146.013 64.7675 146.547 47.5028 146.898 39.4836C146.912 39.1622 146.774 38.7865 146.334 38.6382C145.311 38.297 143.244 37.0758 140.999 34.9104C138.755 32.7449 138.651 29.729 138.888 28.6364" stroke="black" stroke-width="1.56703" stroke-linecap="round" stroke-linejoin="round"/>
<path d="M88.51 49.401L102.62 49.4801L107.821 36.0867L111.965 49.5295L127.573 49.6185L115.089 59.6599L120.201 76.2471L105.933 66.4827L93.1327 73.9333L98.9667 58.8985L88.51 49.401Z" fill="url(#paint0_linear_352_23923)"/>
</g>
<defs>
<filter id="filter0_f_352_23923" x="-66" y="-150" width="392" height="382.775" filterUnits="userSpaceOnUse" color-interpolation-filters="sRGB">
<feFlood flood-opacity="0" result="BackgroundImageFix"/>
<feBlend mode="normal" in="SourceGraphic" in2="BackgroundImageFix" result="shape"/>
<feGaussianBlur stdDeviation="50" result="effect1_foregroundBlur_352_23923"/>
</filter>
<linearGradient id="paint0_linear_352_23923" x1="110.219" y1="23.6822" x2="105.081" y2="84.5705" gradientUnits="userSpaceOnUse">
<stop offset="0.16" stop-color="#7FE0B6"/>
<stop offset="0.24" stop-color="#7FE0B6" stop-opacity="0.94"/>
<stop offset="0.41" stop-color="#7FE0B6" stop-opacity="0.77"/>
<stop offset="0.64" stop-color="#7FE0B6" stop-opacity="0.49"/>
<stop offset="0.92" stop-color="#7FE0B6" stop-opacity="0.12"/>
<stop offset="1" stop-color="#7FE0B6" stop-opacity="0"/>
</linearGradient>
<clipPath id="clip0_352_23923">
<rect width="176" height="196" rx="12" fill="white"/>
</clipPath>
</defs>
</svg>
