<svg width="176" height="160" viewBox="0 0 176 160" fill="none" xmlns="http://www.w3.org/2000/svg">
<g clip-path="url(#clip0_420_24699)">
<rect width="176" height="160" rx="12" fill="#EDF2FE"/>
<g filter="url(#filter0_f_420_24699)">
<ellipse cx="123.875" cy="38.5007" rx="71.875" ry="71.5007" fill="#F0FFF2"/>
</g>
<path d="M148.974 22.7928C148.82 23.4997 148.887 25.4509 150.34 26.8519C151.792 28.2529 153.129 29.043 153.791 29.2637C154.076 29.3596 154.165 29.6027 154.156 29.8106C153.928 34.9988 153.583 46.1685 150.903 57.5653C150.73 58.2978 150.666 58.4769 150.221 58.9727C148.411 60.9942 146.146 62.5456 143.92 64.0617L141.447 65.7186C139.18 67.206 136.854 68.6358 134.481 69.8993C134.17 70.0624 133.831 70.1903 133.483 70.2255C132.402 70.3279 129.117 70.4654 127.994 70.4622C127.319 70.4622 126.798 70.2927 126.369 70.0624C120.573 66.9533 111.47 59.4557 109.899 56.3882C108.431 53.519 109.205 34.9349 109.205 28.0354C110.28 27.9074 112.362 27.111 113.629 25.1086C114.895 23.1063 114.707 20.3906 114.841 20.3138C115.318 20.0388 117.102 19.3543 118.875 18.7561C119.94 18.3915 121.005 18.0748 122.073 17.8157C129.967 16.0149 140.107 17.5534 144.397 18.9928C145.065 19.2167 145.356 19.5302 145.618 19.7701C146.578 20.6497 148.302 22.1435 148.977 22.7832" fill="white"/>
<path d="M145.158 21.7845C145.367 22.8461 145.909 25.1828 146.865 26.5808C147.998 28.1833 149.296 29.2804 150.531 29.821C151.036 30.0417 151.007 30.4319 150.988 30.8957C150.662 38.4829 150.163 45.2065 147.905 55.9891C147.697 56.9743 147.358 57.5629 146.83 58.0842C142.03 62.8079 133.597 67.1041 130.835 68.4438" stroke="black" stroke-width="0.8" stroke-linecap="round" stroke-linejoin="round"/>
<path d="M148.974 22.7899C148.299 22.1502 146.575 20.6564 145.615 19.7768C145.353 19.5369 145.062 19.2234 144.393 18.9995C141.362 17.9822 135.408 16.9154 129.39 17.0129C124.722 17.0886 118.984 17.9228 114.841 20.3142C114.707 20.3909 114.895 23.1066 113.629 25.1089C112.362 27.1113 110.28 27.9078 109.205 28.0357C109.205 34.9352 108.431 53.5193 109.899 56.3885C111.47 59.456 120.573 66.9536 126.369 70.0627C126.798 70.293 127.319 70.4626 127.994 70.4626C129.117 70.4658 132.402 70.3282 133.483 70.2259C133.831 70.1907 134.17 70.0627 134.481 69.8996C136.02 69.0802 137.539 68.1908 139.035 67.2611C141.512 65.7222 143.964 64.1075 146.32 62.3878C147.72 61.366 149.064 60.2656 150.221 58.973C150.666 58.4772 150.73 58.2981 150.903 57.5656C153.583 46.1688 153.928 34.9992 154.156 29.8109C154.165 29.603 154.076 29.3599 153.791 29.264C153.129 29.0433 151.792 28.2532 150.34 26.8522C148.887 25.4512 148.82 23.5 148.974 22.7931" stroke="black" stroke-width="1.5" stroke-linecap="round" stroke-linejoin="round"/>
<path d="M116.379 36.227L125.508 36.2781L128.873 27.613L131.554 36.3101L141.652 36.3677L133.575 42.8642L136.883 53.5956L127.651 47.2783L119.37 52.0986L123.145 42.3716L116.379 36.227Z" fill="url(#paint0_linear_420_24699)"/>
</g>
<defs>
<filter id="filter0_f_420_24699" x="-7.89583" y="-92.8958" width="263.542" height="262.793" filterUnits="userSpaceOnUse" color-interpolation-filters="sRGB">
<feFlood flood-opacity="0" result="BackgroundImageFix"/>
<feBlend mode="normal" in="SourceGraphic" in2="BackgroundImageFix" result="shape"/>
<feGaussianBlur stdDeviation="29.9479" result="effect1_foregroundBlur_420_24699"/>
</filter>
<linearGradient id="paint0_linear_420_24699" x1="130.424" y1="19.5877" x2="127.101" y2="58.9805" gradientUnits="userSpaceOnUse">
<stop offset="0.16" stop-color="#7FE0B6"/>
<stop offset="0.24" stop-color="#7FE0B6" stop-opacity="0.94"/>
<stop offset="0.41" stop-color="#7FE0B6" stop-opacity="0.77"/>
<stop offset="0.64" stop-color="#7FE0B6" stop-opacity="0.49"/>
<stop offset="0.92" stop-color="#7FE0B6" stop-opacity="0.12"/>
<stop offset="1" stop-color="#7FE0B6" stop-opacity="0"/>
</linearGradient>
<clipPath id="clip0_420_24699">
<rect width="176" height="160" rx="12" fill="white"/>
</clipPath>
</defs>
</svg>
