<svg width="36" height="36" viewBox="0 0 36 36" fill="none" xmlns="http://www.w3.org/2000/svg">
<g clip-path="url(#clip0_60_29054)">
<rect width="36" height="36" rx="18" transform="matrix(-1 0 0 1 36 0)" fill="#E4ECFD"/>
<path d="M31.3679 19.3662V19.9471C31.3679 20.1055 31.3679 20.2639 31.3547 20.4223V20.5807C31.3547 20.5807 31.3415 20.6731 31.3547 20.7259C31.3415 20.8051 31.3415 20.8844 31.3415 20.9636V21.2012H31.3283V21.3332C31.3283 21.452 31.3283 21.584 31.3019 21.716C31.2095 23.815 30.84 26.891 28.9529 30.0593C28.6758 30.5345 27.8312 31.9339 26.4984 33.3992L25.7725 33.8216L25.733 33.8481L25.5878 33.9537H25.5614L25.4162 34.0593L25.3635 34.0989L24.123 34.8514L23.8459 35.023C22.6318 35.4454 21.3649 35.7358 20.0453 35.8811C19.3723 35.9603 18.686 35.9999 17.9998 35.9999C17.274 35.9999 16.5482 35.9603 15.8488 35.8679H15.8092C14.5291 35.7094 13.2887 35.419 12.101 35.0098H12.0614L11.9954 34.9834L11.9294 34.9438L10.689 34.1649L10.5438 34.0725L10.4646 34.0461L10.425 34.0197L10.3327 33.9669L9.71243 33.5708C8.10246 31.8678 7.13912 30.1517 6.86199 29.65C5.15964 26.5873 4.82973 23.683 4.73736 21.6764V21.65C4.73736 21.518 4.72416 21.386 4.72416 21.2672C4.71096 21.188 4.71096 21.1088 4.71096 21.0296C4.69777 20.9372 4.69777 20.858 4.69777 20.7655V20.7391C4.71096 20.6467 4.69777 20.5411 4.69777 20.4619C4.68457 20.3167 4.68457 20.1583 4.68457 19.9999V18.7061C4.68457 18.5609 4.68457 18.4157 4.69777 18.2705C4.84293 15.5642 5.52915 11.4982 8.34 8.3431C8.90744 7.68304 11.6523 4.58073 16.0335 3.80185C16.3371 3.76224 16.6538 3.72264 16.9573 3.69624C17.3004 3.65663 17.6699 3.64343 18.0262 3.64343C18.3825 3.64343 18.6992 3.65663 19.0159 3.69624L19.4514 3.73584C19.4514 3.73584 19.557 3.73584 19.5966 3.76224C19.689 3.77545 19.7813 3.77545 19.8737 3.78865C19.9661 3.80185 20.0585 3.82825 20.1376 3.85465C20.2696 3.86785 20.4016 3.88106 20.5335 3.90746C20.6655 3.93386 20.7975 3.97347 20.9294 4.01307C21.1934 4.07908 21.4573 4.15828 21.708 4.23749C21.9192 4.3035 22.1171 4.38271 22.3151 4.46191C25.2711 5.67644 27.2901 7.82825 28.1875 8.96356C30.6684 12.1055 31.2359 15.617 31.3547 18.2969C31.3679 18.6665 31.3679 19.023 31.3679 19.3794V19.3662Z" fill="#0131AA"/>
<path d="M31.3679 19.3662V19.9471C31.3679 20.1055 31.3679 20.2639 31.3547 20.4223V20.5807C31.3547 20.5807 31.3415 20.6731 31.3547 20.7259V21.188C31.3415 21.32 31.3415 21.4652 31.3415 21.6104C31.2623 23.6038 31.0247 26.2705 29.5863 29.0956C29.3356 29.584 28.3986 31.4058 26.7623 33.2408L26.4984 33.3992L25.7725 33.8216L25.733 33.8481L25.5878 33.9537H25.5614L25.4162 34.0593L25.3635 34.0989L24.123 34.8514L23.8459 35.023C22.6318 35.4454 21.3649 35.7358 20.0453 35.8811C19.3723 35.9603 18.686 35.9999 17.9998 35.9999C17.274 35.9999 16.5482 35.9603 15.8488 35.8679H15.8092C14.5291 35.7094 13.2887 35.419 12.101 35.0098H12.0614L11.9954 34.9834L11.9294 34.9438L10.689 34.1649L10.5438 34.0725L10.4646 34.0461L10.425 34.0197L10.3327 33.9669L9.71243 33.5708L9.4617 33.4256C7.77255 31.6038 6.78281 29.7424 6.50568 29.2012C5.04088 26.3497 4.79014 23.6698 4.71096 21.6764V21.65C4.71096 21.5312 4.71096 21.3992 4.69777 21.2672C4.71096 21.2012 4.69777 21.1484 4.69777 21.0824V20.7391C4.71096 20.6467 4.69777 20.5411 4.69777 20.4619C4.68457 20.3167 4.68457 20.1583 4.68457 19.9999V18.7061C4.68457 18.5609 4.68457 18.4157 4.69777 18.2705C4.77695 15.221 5.35759 11.4322 8.14205 8.25069C8.6963 7.61703 11.2036 4.91076 15.2154 3.96026C15.4793 3.89426 15.7564 3.84145 16.0335 3.80185C16.3371 3.76224 16.6538 3.72264 16.9573 3.69624C17.3004 3.65663 17.6699 3.64343 18.0262 3.64343C18.3825 3.64343 18.6992 3.65663 19.0159 3.69624L19.4514 3.73584C19.4514 3.73584 19.557 3.73584 19.5966 3.76224C19.689 3.77545 19.7813 3.77545 19.8737 3.78865C19.9661 3.80185 20.0585 3.82825 20.1376 3.85465C20.2696 3.86785 20.4016 3.88106 20.5335 3.90746C20.6655 3.93386 20.7975 3.97347 20.9294 4.01307C21.1934 4.07908 21.4573 4.15828 21.708 4.23749C21.9192 4.3035 22.1171 4.38271 22.3151 4.46191C25.8121 5.78205 27.8972 8.3563 28.3723 8.93716C30.774 12.0263 31.2887 15.4322 31.3547 18.2969C31.3679 18.6665 31.3679 19.023 31.3679 19.3794V19.3662Z" fill="url(#paint0_radial_60_29054)"/>
<path d="M31.3672 19.3662C31.3672 19.617 31.3672 19.8679 31.354 20.1187V20.5807C31.354 20.5807 31.3408 20.6731 31.354 20.726C31.3408 20.8052 31.3408 20.8844 31.3408 20.9636C31.3408 21.0428 31.3408 21.122 31.3276 21.2012V21.3332C31.3276 21.452 31.3276 21.584 31.3012 21.7161C31.1825 23.5378 30.8394 25.8085 29.5857 28.1847C29.335 28.6599 28.398 30.4157 26.7617 32.1847L26.4977 32.3431L25.8775 32.6996L25.7323 32.7788L25.5872 32.8712H25.5608L25.4816 32.9372L25.4156 32.99L24.1751 33.7161L24.0828 33.7689L21.747 35.1418C21.2059 35.4718 20.6385 35.7094 20.0447 35.8811C19.3716 35.9603 18.6854 35.9999 17.9992 35.9999C17.2734 35.9999 16.5476 35.9603 15.8482 35.8679H15.8086C15.2411 35.6963 14.6869 35.4586 14.1722 35.1418L12.14 33.9405L12.0476 33.8877L11.9288 33.8085L10.6883 33.056L10.5432 32.99L10.4772 32.9504L10.3452 32.8712H10.3188L9.725 32.5015L9.47427 32.3563C7.78512 30.6005 6.79538 28.8052 6.51826 28.2771C5.19861 25.8217 4.8687 23.5114 4.74993 21.6632V21.6368C4.74993 21.5048 4.73673 21.3728 4.73673 21.254C4.72354 21.1748 4.72354 21.0956 4.72354 21.0164V20.7524L4.71034 20.726C4.72354 20.6335 4.71034 20.5279 4.71034 20.4487V20.1187C4.69714 19.8943 4.69714 19.6566 4.69714 19.4058V18.3365C4.69714 18.1517 4.69714 17.9405 4.71034 17.7425C4.78952 14.7986 5.37016 11.1418 8.15462 8.07909C8.70887 7.45863 11.2162 4.84477 15.2279 3.94708C15.4919 3.88107 15.769 3.82827 16.0461 3.78866C16.3496 3.74906 16.6664 3.70946 16.9699 3.68305C17.313 3.64345 17.6825 3.63025 18.0388 3.63025C18.3951 3.63025 18.7118 3.64345 19.0285 3.68305L19.464 3.72266C19.464 3.72266 19.5564 3.72266 19.6092 3.72266C19.7015 3.72266 19.7939 3.74906 19.8863 3.76226C19.9787 3.77546 20.071 3.80187 20.1502 3.81507C20.2822 3.82827 20.4142 3.85467 20.5461 3.88107C20.6781 3.90748 20.81 3.93388 20.942 3.97348C21.2059 4.03949 21.4699 4.1187 21.7206 4.19791C25.574 5.38602 27.8834 8.1319 28.3848 8.72596C30.7866 11.6963 31.3012 14.9834 31.3672 17.7425C31.3672 17.9273 31.3804 18.0989 31.3672 18.2705C31.3804 18.6401 31.3804 18.9966 31.3804 19.353L31.3672 19.3662Z" fill="url(#paint1_radial_60_29054)"/>
<path opacity="0.46" d="M31.3672 19.3662C31.3672 19.617 31.3672 19.8679 31.354 20.1187V20.5807C31.354 20.5807 31.3408 20.6731 31.354 20.726C31.3408 20.8052 31.3408 20.8844 31.3408 20.9636C31.3408 21.0428 31.3408 21.122 31.3276 21.2012V21.3332C31.3276 21.452 31.3276 21.584 31.3012 21.7161C31.1825 23.5378 30.8394 25.8085 29.5857 28.1847C29.335 28.6599 28.398 30.4157 26.7617 32.1847L26.4977 32.3431L25.8775 32.6996L25.7323 32.7788L25.5872 32.8712H25.5608L25.4816 32.9372L25.4156 32.99L24.1751 33.7161L24.0828 33.7689L21.747 35.1418C21.2059 35.4718 20.6385 35.7094 20.0447 35.8811C19.3716 35.9603 18.6854 35.9999 17.9992 35.9999C17.2734 35.9999 16.5476 35.9603 15.8482 35.8679H15.8086C15.2411 35.6963 14.6869 35.4586 14.1722 35.1418L12.14 33.9405L12.0476 33.8877L11.9288 33.8085L10.6883 33.056L10.5432 32.99L10.4772 32.9504L10.3452 32.8712H10.3188L9.725 32.5015L9.47427 32.3563C7.78512 30.6005 6.79538 28.8052 6.51826 28.2771C5.19861 25.8217 4.8687 23.5114 4.74993 21.6632V21.6368C4.74993 21.5048 4.73673 21.3728 4.73673 21.254C4.72354 21.1748 4.72354 21.0956 4.72354 21.0164V20.7524L4.71034 20.726C4.72354 20.6335 4.71034 20.5279 4.71034 20.4487V20.1187C4.69714 19.8943 4.69714 19.6566 4.69714 19.4058V18.3365C4.69714 18.1517 4.69714 17.9405 4.71034 17.7425C4.78952 14.7986 5.37016 11.1418 8.15462 8.07909C8.70887 7.45863 11.2162 4.84477 15.2279 3.94708C15.4919 3.88107 15.769 3.82827 16.0461 3.78866C16.3496 3.74906 16.6664 3.70946 16.9699 3.68305C17.313 3.64345 17.6825 3.63025 18.0388 3.63025C18.3951 3.63025 18.7118 3.64345 19.0285 3.68305L19.464 3.72266C19.464 3.72266 19.5564 3.72266 19.6092 3.72266C19.7015 3.72266 19.7939 3.74906 19.8863 3.76226C19.9787 3.77546 20.071 3.80187 20.1502 3.81507C20.2822 3.82827 20.4142 3.85467 20.5461 3.88107C20.6781 3.90748 20.81 3.93388 20.942 3.97348C21.2059 4.03949 21.4699 4.1187 21.7206 4.19791C25.574 5.38602 27.8834 8.1319 28.3848 8.72596C30.7866 11.6963 31.3012 14.9834 31.3672 17.7425C31.3672 17.9273 31.3804 18.0989 31.3672 18.2705C31.3804 18.6401 31.3804 18.9966 31.3804 19.353L31.3672 19.3662Z" fill="url(#paint2_radial_60_29054)"/>
<path opacity="0.82" d="M31.3679 19.3662C31.3679 19.617 31.3679 19.8679 31.3547 20.1187V20.5807C31.3547 20.5807 31.3415 20.6731 31.3547 20.726C31.3415 20.8052 31.3415 20.8844 31.3415 20.9636C31.3415 21.0428 31.3415 21.122 31.3283 21.2012V21.3332C31.3283 21.452 31.3283 21.584 31.3019 21.7161C31.1831 23.5378 30.84 25.8085 29.5863 28.1847C29.3356 28.6599 28.3986 30.4157 26.7623 32.1847L26.4984 32.3431L25.8781 32.6996L25.733 32.7788L25.5878 32.8712H25.5614L25.4822 32.9372L25.4162 32.9768L24.1758 33.7161C24.1626 34.1253 24.1362 34.5213 24.123 34.9306C23.7271 35.0758 23.3708 35.1814 23.0673 35.2738C22.4734 35.4454 22.0247 35.551 21.8664 35.5774C21.642 35.6302 21.3253 35.6963 20.9294 35.7623C20.6127 35.8151 20.3224 35.8547 20.0321 35.8811C19.3591 35.9603 18.6728 35.9999 17.9866 35.9999C17.2608 35.9999 16.535 35.9603 15.8356 35.8679H15.796C15.2286 35.6963 14.6743 35.4586 14.1596 35.1418L12.1274 33.9405L12.035 33.8877L11.9162 33.8085L10.6758 33.056L10.5306 32.9768L10.4646 32.9504L10.3327 32.8712H10.3063L9.71243 32.5015L9.4617 32.3563C7.77255 30.6005 6.78281 28.8052 6.50568 28.2771C5.18604 25.8217 4.85612 23.5114 4.73736 21.6632V21.6368C4.73736 21.5048 4.72416 21.3728 4.72416 21.254C4.71096 21.1748 4.71096 21.0956 4.71096 21.0164V20.7524L4.69777 20.726C4.71096 20.6335 4.69777 20.5279 4.69777 20.4487V20.1187C4.68457 19.8943 4.68457 19.6566 4.68457 19.4058V18.3365C4.68457 18.1517 4.68457 17.9405 4.69777 17.7425C4.77695 14.7986 5.35759 11.1418 8.14205 8.07909C8.6963 7.45863 11.2036 4.84477 15.2154 3.94708C15.4793 3.88107 15.7564 3.82827 16.0335 3.78866C16.3371 3.74906 16.6538 3.70946 16.9573 3.68305C17.3004 3.64345 17.6699 3.63025 18.0262 3.63025C18.3825 3.63025 18.6992 3.64345 19.0159 3.68305L19.4514 3.72266C19.4514 3.72266 19.5438 3.72266 19.5966 3.72266C19.689 3.72266 19.7813 3.74906 19.8737 3.76226C19.9661 3.77546 20.0585 3.80187 20.1376 3.81507C20.2696 3.82827 20.4016 3.85467 20.5335 3.88107C20.6655 3.90748 20.7975 3.93388 20.9294 3.97348C21.1934 4.03949 21.4573 4.1187 21.708 4.19791C25.5614 5.38602 27.8708 8.1319 28.3723 8.72596C30.774 11.6963 31.2887 14.9834 31.3547 17.7425C31.3547 17.9273 31.3679 18.0989 31.3547 18.2705C31.3679 18.6401 31.3679 18.9966 31.3679 19.353V19.3662Z" fill="url(#paint3_radial_60_29054)"/>
<path d="M33.6107 26.9568C33.2148 27.6562 32.7661 28.3161 32.2911 28.9495C32.2779 28.9759 32.2647 28.9891 32.2383 29.0023L32.2911 26.165V26.1254H32.3702C32.555 26.1122 33.1224 26.1518 33.6107 26.9568Z" fill="url(#paint4_radial_60_29054)"/>
<path d="M3.7743 29.0024L3.73471 26.3499V26.3103H3.65553C3.48398 26.2971 2.92972 26.3235 2.45465 27.0625C2.83735 27.7224 3.25964 28.3558 3.73471 28.9496L3.7743 29.0024Z" fill="url(#paint5_radial_60_29054)"/>
<path d="M10.6893 34.152L10.6101 34.4028C10.5574 34.3896 10.5046 34.3632 10.4518 34.3368C7.81249 33.1223 5.51631 31.2873 3.77437 29.0034L3.73478 28.9506L3.69519 26.3104V26.1916L3.89314 20.8318V20.6866L4.22305 20.4358L4.67173 20.7262L4.69812 20.7526H4.71132L6.2817 21.7559L8.34035 24.2114L10.0427 29.3995L10.531 32.977L10.6893 34.152Z" fill="url(#paint6_radial_60_29054)"/>
<path d="M12.1004 35.0101H12.0608L11.9948 34.9837C11.5197 34.8121 11.0578 34.6273 10.6092 34.4161C10.5564 34.4029 10.5036 34.3765 10.4508 34.3501C10.4376 34.2577 10.4244 34.1389 10.4244 34.02C10.398 33.7164 10.3584 33.3336 10.3056 32.8715C10.2529 32.3567 10.1737 31.7494 10.0681 31.0233C9.64582 28.0531 8.10184 23.9342 6.12236 22.3237C5.51533 21.8352 5.06664 21.492 4.73673 21.2676H4.69714C4.24846 20.9243 4.02412 20.8187 3.90535 20.7263H3.89216C3.89216 20.7263 3.78659 20.6339 3.77339 20.5811C3.7206 20.3567 4.40682 19.3534 4.68395 19.3798H4.69714C4.69714 19.3798 6.24113 19.657 8.08864 22.0465C9.93615 24.4491 10.1605 25.9012 10.3188 26.5349C10.4772 27.1818 10.9787 29.3072 11.1238 29.5448C11.2426 29.7428 11.7441 30.2181 11.8364 30.4953C11.8892 30.6141 11.9816 32.3039 12.0476 33.9012C12.074 34.2841 12.0872 34.6669 12.1004 35.0233V35.0101Z" fill="#CCF4FF"/>
<path d="M32.306 26.0465V26.1258L32.2796 28.9508C32.2796 28.9508 32.2532 28.9904 32.2268 29.0036C30.5113 31.2215 28.2943 33.03 25.7342 34.2446C25.6418 34.2974 25.5362 34.337 25.4438 34.3766L25.3515 34.0994L25.3251 34.0201L25.4702 32.9376L25.9717 29.2413L27.674 24.0531L29.7327 21.6109L31.3295 20.5944H31.3427V20.568L31.7913 20.2908L32.1213 20.5284V20.6736L32.306 26.0465Z" fill="url(#paint7_radial_60_29054)"/>
<path d="M32.2261 20.5283C32.2261 20.5283 32.1865 20.6207 32.1205 20.6735C32.0018 20.766 31.7774 20.8716 31.3419 21.1884H31.3288L31.3156 21.2016C31.012 21.426 30.5502 21.7561 29.9563 22.2313C28.0428 23.7891 26.5252 27.8155 26.1161 30.7065C26.0106 31.5118 25.9314 32.1719 25.8786 32.6999C25.8258 33.162 25.7994 33.5316 25.773 33.8221C25.7598 33.9937 25.7598 34.1257 25.7466 34.2445C25.6543 34.2973 25.5487 34.3369 25.4563 34.3765C25.0208 34.5877 24.5854 34.7594 24.1235 34.931V34.8518C24.1499 34.5085 24.1631 34.1125 24.1763 33.7164C24.2554 32.1059 24.3478 30.3237 24.4006 30.1917C24.493 29.9277 24.9812 29.4524 25.1 29.2676C25.232 29.0432 25.7334 26.9706 25.8786 26.3501C26.0238 25.7164 26.2613 24.3039 28.0692 21.9673C29.8507 19.6438 31.3551 19.3666 31.3551 19.3666H31.3683C31.6323 19.3402 32.3053 20.3171 32.2393 20.5283H32.2261Z" fill="#CCF4FF"/>
<path d="M20.5475 17.3466V19.67C20.5475 19.9868 20.6795 20.2773 20.9039 20.4885L21.5769 21.1089C21.9992 21.505 22.659 21.505 23.0945 21.1089L23.7675 20.4885C23.9918 20.2773 24.1238 19.9736 24.1238 19.67V17.3466C24.1238 17.0297 23.9918 16.7393 23.7675 16.5281L23.0945 15.9076C22.6722 15.5116 22.0124 15.5116 21.5769 15.9076L20.9039 16.5281C20.6795 16.7393 20.5475 17.0429 20.5475 17.3466Z" fill="white"/>
<path d="M11.8238 17.3466V19.67C11.8238 19.9868 11.9558 20.2773 12.1801 20.4885L12.8531 21.1089C13.2754 21.505 13.9352 21.505 14.3707 21.1089L15.0437 20.4885C15.2681 20.2773 15.4 19.9736 15.4 19.67V17.3466C15.4 17.0297 15.2681 16.7393 15.0437 16.5281L14.3707 15.9076C13.9484 15.5116 13.2886 15.5116 12.8531 15.9076L12.1801 16.5281C11.9558 16.7393 11.8238 17.0429 11.8238 17.3466Z" fill="white"/>
<path d="M17.6838 24.0788C17.6838 24.0788 18.502 24.092 19.3069 23.9864C20.1119 23.8808 20.5474 23.8808 20.5474 24.2503C20.5474 24.6198 20.1515 24.8442 19.3597 24.9629C18.5679 25.0817 17.6574 25.1081 16.3905 25.0025C15.1237 24.897 14.9653 24.5802 14.9917 24.1843C15.0181 23.7885 15.9022 24.0128 16.2454 24.0392C16.5885 24.0656 17.3407 24.0788 17.6838 24.0788Z" fill="white"/>
</g>
<rect x="-1" y="1" width="34" height="34" rx="17" transform="matrix(-1 0 0 1 34 0)" stroke="#1D5DEB" stroke-opacity="0.18" stroke-width="2"/>
<defs>
<radialGradient id="paint0_radial_60_29054" cx="0" cy="0" r="1" gradientUnits="userSpaceOnUse" gradientTransform="translate(18.4155 22.7765) rotate(-91.9793) scale(20.6072 15.6558)">
<stop offset="0.11" stop-color="#6991DF"/>
<stop offset="0.57" stop-color="#265AC2"/>
<stop offset="0.75" stop-color="#0B45B7"/>
<stop offset="0.79" stop-color="#0A40AB"/>
<stop offset="0.85" stop-color="#083693"/>
</radialGradient>
<radialGradient id="paint1_radial_60_29054" cx="0" cy="0" r="1" gradientUnits="userSpaceOnUse" gradientTransform="translate(18.4148 22.7765) rotate(-91.9793) scale(20.6072 15.6558)">
<stop offset="0.03" stop-color="#E2E6F0" stop-opacity="0.22"/>
<stop offset="0.28" stop-color="#CDD6EA" stop-opacity="0.2"/>
<stop offset="0.58" stop-color="#92AADB" stop-opacity="0.14"/>
<stop offset="0.89" stop-color="#3162C1" stop-opacity="0.04"/>
<stop offset="1" stop-color="#0B45B7" stop-opacity="0"/>
</radialGradient>
<radialGradient id="paint2_radial_60_29054" cx="0" cy="0" r="1" gradientUnits="userSpaceOnUse" gradientTransform="translate(20.8496 17.1484) scale(12.2991 12.3036)">
<stop offset="0.03" stop-color="#E2E6F0" stop-opacity="0.5"/>
<stop offset="0.19" stop-color="#D9DFED" stop-opacity="0.48"/>
<stop offset="0.37" stop-color="#BFCBE6" stop-opacity="0.42"/>
<stop offset="0.57" stop-color="#94ABDB" stop-opacity="0.32"/>
<stop offset="0.78" stop-color="#587ECB" stop-opacity="0.18"/>
<stop offset="1" stop-color="#0B45B7" stop-opacity="0"/>
</radialGradient>
<radialGradient id="paint3_radial_60_29054" cx="0" cy="0" r="1" gradientUnits="userSpaceOnUse" gradientTransform="translate(18.2144 22.8849) rotate(-88.3406) scale(20.264 15.395)">
<stop offset="0.12" stop-color="#63A7DF" stop-opacity="0"/>
<stop offset="0.52" stop-color="#0B45B7" stop-opacity="0"/>
<stop offset="0.57" stop-color="#0A43B4" stop-opacity="0.08"/>
<stop offset="0.65" stop-color="#0A40AC" stop-opacity="0.29"/>
<stop offset="0.76" stop-color="#093BA0" stop-opacity="0.64"/>
<stop offset="0.86" stop-color="#083693"/>
<stop offset="0.87" stop-color="#103D96"/>
<stop offset="0.89" stop-color="#2951A1"/>
<stop offset="0.92" stop-color="#5071B2"/>
<stop offset="0.95" stop-color="#879ECA"/>
<stop offset="0.98" stop-color="#CDD6E9"/>
<stop offset="1" stop-color="white"/>
</radialGradient>
<radialGradient id="paint4_radial_60_29054" cx="0" cy="0" r="1" gradientUnits="userSpaceOnUse" gradientTransform="translate(32.9245 27.5639) scale(4.75074 4.75073)">
<stop offset="0.02" stop-color="white"/>
<stop offset="0.49" stop-color="#BEC3C4"/>
<stop offset="0.57" stop-color="#A7AEB0"/>
<stop offset="0.64" stop-color="#9BA3A5"/>
<stop offset="0.67" stop-color="#979FA2"/>
<stop offset="0.7" stop-color="#8D959B"/>
<stop offset="0.72" stop-color="#7B838E"/>
<stop offset="0.75" stop-color="#626B7C"/>
<stop offset="0.77" stop-color="#424B65"/>
<stop offset="0.79" stop-color="#1B244A"/>
<stop offset="0.8" stop-color="#161F46"/>
</radialGradient>
<radialGradient id="paint5_radial_60_29054" cx="0" cy="0" r="1" gradientUnits="userSpaceOnUse" gradientTransform="translate(3.11447 27.6564) scale(4.47361 4.47361)">
<stop offset="0.02" stop-color="white"/>
<stop offset="0.49" stop-color="#BEC3C4"/>
<stop offset="0.57" stop-color="#A7AEB0"/>
<stop offset="0.64" stop-color="#9BA3A5"/>
<stop offset="0.67" stop-color="#979FA2"/>
<stop offset="0.7" stop-color="#8D959B"/>
<stop offset="0.72" stop-color="#7B838E"/>
<stop offset="0.75" stop-color="#626B7C"/>
<stop offset="0.77" stop-color="#424B65"/>
<stop offset="0.79" stop-color="#1B244A"/>
<stop offset="0.8" stop-color="#161F46"/>
</radialGradient>
<radialGradient id="paint6_radial_60_29054" cx="0" cy="0" r="1" gradientUnits="userSpaceOnUse" gradientTransform="translate(4.63214 31.8813) scale(50.3578 50.3762)">
<stop offset="0.04" stop-color="#DADEDF"/>
<stop offset="0.13" stop-color="#D1D6D7"/>
<stop offset="0.2" stop-color="#C8CDCF"/>
<stop offset="0.34" stop-color="#9197A5"/>
<stop offset="0.68" stop-color="#161F46"/>
</radialGradient>
<radialGradient id="paint7_radial_60_29054" cx="0" cy="0" r="1" gradientUnits="userSpaceOnUse" gradientTransform="translate(26.2752 31.8287) scale(50.3446 50.363)">
<stop offset="0.04" stop-color="#DADEDF"/>
<stop offset="0.13" stop-color="#D1D6D7"/>
<stop offset="0.2" stop-color="#C8CDCF"/>
<stop offset="0.34" stop-color="#9197A5"/>
<stop offset="0.68" stop-color="#161F46"/>
</radialGradient>
<clipPath id="clip0_60_29054">
<rect width="36" height="36" rx="18" transform="matrix(-1 0 0 1 36 0)" fill="white"/>
</clipPath>
</defs>
</svg>
