<svg width="176" height="196" viewBox="0 0 176 196" fill="none" xmlns="http://www.w3.org/2000/svg">
<g clip-path="url(#clip0_7138_559)">
<rect width="176" height="196" rx="12" fill="#EDF2FE"/>
<g filter="url(#filter0_f_7138_559)">
<ellipse cx="130" cy="41.3876" rx="96" ry="91.3876" fill="#DDEBFF"/>
</g>
<path d="M151.54 93.7864L157.152 84.9472L154.666 79.8683L146.761 79.9093L146.827 50.8366H154.256V47.7767L148.792 41.5653L108.325 20.603L72.0505 43.9628V47.7704L82.7667 49.7798L82.079 81.3478L69.0915 83.8462L65 90.4141L151.54 93.7832V93.7864Z" fill="white"/>
<path d="M82.0069 49.4328L72.4043 47.7704V43.9659L108.679 20.603L149.146 41.5621L154.61 47.7704V50.8335H147.181L147.114 79.9062" stroke="black" stroke-width="1.2" stroke-linecap="round" stroke-linejoin="round"/>
<path d="M83.2218 47.3445L82.3984 83.0292" stroke="black" stroke-width="1.2" stroke-linecap="round" stroke-linejoin="round"/>
<path d="M147.126 81.2849L141.104 85.6004V46.7579L146.053 49.9662" stroke="black" stroke-width="0.6" stroke-linecap="round" stroke-linejoin="round"/>
<path d="M147.118 79.9061L155.023 79.8619L157.512 84.9471L151.897 93.7863L65.3574 90.414L69.4458 83.8462L80.3575 81.8241" stroke="black" stroke-width="1.2" stroke-linecap="round" stroke-linejoin="round"/>
<path d="M76.166 84.3007L148.75 86.3197L153.589 81.348" stroke="black" stroke-width="0.6" stroke-linecap="round" stroke-linejoin="round"/>
<path d="M80.9062 47.2217L149.326 45.7517L153.011 49.3385" stroke="black" stroke-width="1.2" stroke-linecap="round" stroke-linejoin="round"/>
<path d="M87.5693 49.0923V50.3163C87.5693 50.8084 87.91 51.2374 88.3864 51.351L88.8122 51.4551L88.1908 81.4331L88.0741 81.4584C87.4968 81.5814 87.0898 82.0925 87.0898 82.6824V84.2628" stroke="black" stroke-width="1.2" stroke-linecap="round" stroke-linejoin="round"/>
<path d="M99.8009 47.0511V50.3225C99.7946 50.8083 99.4539 51.2278 98.9807 51.3414L98.5391 51.4486L98.64 81.3636L98.7378 81.3857C99.3214 81.5119 99.7315 82.0324 99.722 82.6318L99.7157 83.1176" stroke="black" stroke-width="1.2" stroke-linecap="round" stroke-linejoin="round"/>
<path d="M88.2441 51.3982C91.2915 50.3067 93.8751 50.5686 97.0549 51.1459" stroke="black" stroke-width="0.6" stroke-linecap="round" stroke-linejoin="round"/>
<path d="M98.5471 81.348C98.5471 81.8244 96.1748 82.2124 93.2505 82.2124C91.9035 82.2124 90.6732 82.1304 89.7363 81.9979" stroke="black" stroke-width="0.6" stroke-linecap="round" stroke-linejoin="round"/>
<path d="M122.925 48.2847V49.4392C122.925 50.0733 123.361 50.6285 123.979 50.7768L124.219 50.8336L123.572 82.0829L123.285 82.146C122.78 82.2564 122.424 82.7012 122.424 83.2154V85.3069" stroke="black" stroke-width="1.2" stroke-linecap="round" stroke-linejoin="round"/>
<path d="M135.677 46.4678V49.4489C135.668 50.0766 135.232 50.6192 134.62 50.7612L134.355 50.8243L134.46 82.0042L134.548 82.0263C135.16 82.1588 135.595 82.7077 135.586 83.3386L135.57 84.2629" stroke="black" stroke-width="1.2" stroke-linecap="round" stroke-linejoin="round"/>
<path d="M134.357 50.6503C131.597 49.6629 129.202 49.7386 126.445 50.1708" stroke="black" stroke-width="0.496308" stroke-linecap="round" stroke-linejoin="round"/>
<path d="M134.361 82.083C134.361 82.3291 131.891 82.531 128.844 82.531C127.342 82.531 125.979 82.4836 124.982 82.4048" stroke="black" stroke-width="0.495271" stroke-linecap="round" stroke-linejoin="round"/>
<path d="M136.148 40.2119L108.356 25.6976L83.2422 41.7577V44.357L136.318 43.2655" stroke="black" stroke-width="0.6" stroke-linecap="round" stroke-linejoin="round"/>
<path d="M150.933 91.4931L148.75 86.3196" stroke="black" stroke-width="0.6" stroke-linecap="round" stroke-linejoin="round"/>
<path d="M107.509 41.0637V33.622L109.913 33.5337C110.663 33.5053 111.272 34.3223 111.272 35.3539C111.272 36.3854 110.663 37.2466 109.913 37.2656L106.234 37.3791" stroke="black" stroke-width="0.6" stroke-linecap="round" stroke-linejoin="round"/>
<path d="M106.234 39.013L110.064 38.9026" stroke="black" stroke-width="0.6" stroke-linecap="round" stroke-linejoin="round"/>
<path d="M112.608 38.9313C112.368 38.0858 112.494 37.1016 112.939 36.3477C113.384 35.5937 114.141 35.0827 114.93 35.007C115.037 35.8429 114.851 36.6947 114.447 37.4171C114.043 38.1395 113.318 38.6852 112.605 38.9313H112.608Z" stroke="black" stroke-width="0.6" stroke-linecap="round" stroke-linejoin="round"/>
<path d="M119.328 37.1423C118.628 37.259 118.107 38.1202 118.205 38.9057C118.303 39.6912 118.94 40.3127 119.637 40.3821C120.338 40.4546 121.057 40.0193 121.467 39.3537C122.025 38.4546 122.013 37.1707 121.435 36.319C120.861 35.4704 119.776 35.1297 118.874 35.5051C117.887 35.9183 117.265 37.0193 116.751 38.0603C116.237 39.095 115.688 40.2117 114.757 40.7417C114.016 41.1644 113.098 41.1234 112.41 40.6345" stroke="black" stroke-width="0.6" stroke-linecap="round" stroke-linejoin="round"/>
<path d="M104.371 39.1646C104.604 38.316 104.481 37.3507 104.049 36.6378C103.617 35.9248 102.885 35.4737 102.125 35.4517C102.021 36.2782 102.201 37.0984 102.592 37.7829C102.983 38.4674 103.677 38.9627 104.371 39.1678V39.1646Z" stroke="black" stroke-width="0.6" stroke-linecap="round" stroke-linejoin="round"/>
<path d="M97.9753 37.7989C98.6315 37.8714 99.1173 38.6727 99.029 39.4393C98.9406 40.2058 98.3444 40.8367 97.6883 40.9377C97.0321 41.0386 96.376 40.6569 95.9974 40.0386C95.4864 39.209 95.4958 37.9755 96.0258 37.1269C96.5526 36.2784 97.5621 35.8777 98.4012 36.1869C99.3255 36.5276 99.9091 37.5591 100.401 38.5339C100.89 39.515 101.411 40.5781 102.303 41.0481C103.016 41.4267 103.903 41.3383 104.572 40.8273" stroke="black" stroke-width="0.6" stroke-linecap="round" stroke-linejoin="round"/>
<path fill-rule="evenodd" clip-rule="evenodd" d="M103.791 63.5131H102.628C102.19 63.5095 101.777 63.5905 101.777 64.625V69.5436C101.777 71.7747 103.349 76.859 111.154 77.0026C118.002 77.1314 120.373 72.8644 120.37 69.6173V64.5366C120.37 63.8334 119.747 63.4211 119.21 63.4211H117.951V60.8992C117.951 59.8426 117.789 53.0942 110.808 53.1641C103.828 53.2341 103.891 60.1592 103.891 60.9066C103.891 61.6539 103.788 63.5168 103.788 63.5168L103.791 63.5131ZM106.206 63.5463L115.738 63.572V60.7887C115.738 59.3824 114.751 55.5535 111.084 55.5793C107.859 55.6013 106.181 57.8214 106.181 60.4206C106.181 62.0515 106.206 63.5463 106.206 63.5463ZM112.108 72.7687L110.37 72.7466L110.738 69.794C110.738 69.794 109.792 69.4405 109.792 68.4981C109.792 67.5556 110.4 66.9702 111.324 66.9775C112.248 66.9849 112.719 67.8427 112.719 68.6048C112.719 69.2491 111.847 69.8345 111.847 69.8345L112.112 72.7724L112.108 72.7687Z" fill="url(#paint0_linear_7138_559)"/>
</g>
<defs>
<filter id="filter0_f_7138_559" x="-66" y="-150" width="392" height="382.775" filterUnits="userSpaceOnUse" color-interpolation-filters="sRGB">
<feFlood flood-opacity="0" result="BackgroundImageFix"/>
<feBlend mode="normal" in="SourceGraphic" in2="BackgroundImageFix" result="shape"/>
<feGaussianBlur stdDeviation="50" result="effect1_foregroundBlur_7138_559"/>
</filter>
<linearGradient id="paint0_linear_7138_559" x1="109.538" y1="57.7698" x2="113.746" y2="83.6847" gradientUnits="userSpaceOnUse">
<stop stop-color="#FF8D9C"/>
<stop offset="0.09" stop-color="#FF8D9C" stop-opacity="0.97"/>
<stop offset="0.22" stop-color="#FF8D9C" stop-opacity="0.9"/>
<stop offset="0.37" stop-color="#FF8D9C" stop-opacity="0.77"/>
<stop offset="0.54" stop-color="#FF8D9C" stop-opacity="0.6"/>
<stop offset="0.72" stop-color="#FF8D9C" stop-opacity="0.38"/>
<stop offset="0.92" stop-color="#FF8D9C" stop-opacity="0.12"/>
<stop offset="1" stop-color="#FF8D9C" stop-opacity="0"/>
</linearGradient>
<clipPath id="clip0_7138_559">
<rect width="176" height="196" rx="12" fill="white"/>
</clipPath>
</defs>
</svg>
